A descent into the nether world of the psyche. We see a step by step metamorphosis of
a tortured soul as he becomes his alter ego, a murderous fiend who kills without quarter. The war between good and
evil in his mind propels him into an Inferno of his own making.

xvfvU.png
Encoded By .......: Stang91
Runtime ..........: 1h 42mn
File Size ........: 720 MB
Resolution .......: 640x336
IMDb URL .........: http://www.imdb.com/title/tt0790813/
Format ...........: mpeg4
Genre ............: Drama/Horror/Thriller
Language .........: English
Subtitles ........: None
Video
ID : 1
Format : AVC
Format/Info : Advanced Video Codec
Format profile : High@L3.0
Format settings, CABAC : Yes
Format settings, ReFrames : 4 frames
Codec ID : avc1
Codec ID/Info : Advanced Video Coding
Duration : 1h 42mn
Bit rate mode : Variable
Bit rate : 784 Kbps
Width : 640 pixels
Height : 336 pixels
Display aspect ratio : 1.878
Frame rate mode : Variable
Frame rate : 25.405 fps
Minimum frame rate : 8.559 fps
Maximum frame rate : 29.970 fps
Color space : YUV
Chroma subsampling : 4:2:0
Bit depth : 8 bits
Scan type : Progressive
Bits/(Pixel*Frame) : 0.144
Stream size : 576 MiB (80%)
Writing library : x264 core 112
Audio
ID : 2
Format : AC-3
Format/Info : Audio Coding 3
Mode extension : CM (complete main)
Codec ID : ac-3
Duration : 1h 42mn
Bit rate mode : Constant
Bit rate : 192 Kbps
Channel(s) : 2 channels
Channel positions : Front: L R
Sampling rate : 48.0 KHz
Bit depth : 16 bits
Compression mode : Lossy
Stream size : 141 MiB (20%)
Language : English
Encoded date : UTC 2011-12-18 22:34:01
Tagged date : UTC 2011-12-18 23:18:47
 
http://www.shotpix.com/images/40876770024866845420.png 
http://www.shotpix.com/images/75841131624320630421.png 
http://www.shotpix.com/images/23594316793551464298.png 
http://www.shotpix.com/images/41720972064040621821.png